<svg xmlns="http://www.w3.org/2000/svg" viewBox="0 0 100 100">
  <rect width="100" height="100" rx="20" fill="#6b2458"/>
  <circle cx="50" cy="50" r="8" fill="white"/>
  <g stroke="white" stroke-width="2.5" stroke-linecap="round">
    <line x1="50" y1="15" x2="50" y2="30"/>
    <line x1="50" y1="70" x2="50" y2="85"/>
    <line x1="15" y1="50" x2="30" y2="50"/>
    <line x1="70" y1="50" x2="85" y2="50"/>
    <line x1="25.3" y1="25.3" x2="35.6" y2="35.6"/>
    <line x1="64.4" y1="64.4" x2="74.7" y2="74.7"/>
    <line x1="74.7" y1="25.3" x2="64.4" y2="35.6"/>
    <line x1="35.6" y1="64.4" x2="25.3" y2="74.7"/>
    <line x1="50" y1="20" x2="50" y2="28" transform="rotate(22.5 50 50)"/>
    <line x1="50" y1="20" x2="50" y2="28" transform="rotate(67.5 50 50)"/>
    <line x1="50" y1="20" x2="50" y2="28" transform="rotate(112.5 50 50)"/>
    <line x1="50" y1="20" x2="50" y2="28" transform="rotate(157.5 50 50)"/>
    <line x1="50" y1="20" x2="50" y2="28" transform="rotate(202.5 50 50)"/>
    <line x1="50" y1="20" x2="50" y2="28" transform="rotate(247.5 50 50)"/>
    <line x1="50" y1="20" x2="50" y2="28" transform="rotate(292.5 50 50)"/>
    <line x1="50" y1="20" x2="50" y2="28" transform="rotate(337.5 50 50)"/>
  </g>
</svg>
